<?xml version="1.0" encoding="UTF-8"?><svg id="Layer_1" xmlns="http://www.w3.org/2000/svg" viewBox="0 0 44.44 44.44"><defs><style>.cls-1{fill:none;stroke:#fff;stroke-miterlimit:10;stroke-width:1.42px;}</style></defs><circle class="cls-1" cx="22.22" cy="22.22" r="12.59"/><line class="cls-1" x1="33.33" y1="41.47" x2="29.57" y2="34.94"/><line class="cls-1" x1="14.88" y1="9.5" x2="11.11" y2="2.98"/><line class="cls-1" x1="41.47" y1="33.33" x2="34.94" y2="29.57"/><line class="cls-1" x1="22.22" y1="22.22" x2="22.22" y2="22.22"/><line class="cls-1" x1="9.5" y1="14.88" x2="2.98" y2="11.11"/><line class="cls-1" x1="44.44" y1="22.22" x2="36.91" y2="22.22"/><line class="cls-1" x1="22.22" y1="22.22" x2="22.22" y2="22.22"/><line class="cls-1" x1="7.53" y1="22.22" y2="22.22"/><line class="cls-1" x1="41.47" y1="11.11" x2="34.94" y2="14.88"/><line class="cls-1" x1="22.22" y1="22.22" x2="22.22" y2="22.22"/><line class="cls-1" x1="9.5" y1="29.57" x2="2.98" y2="33.33"/><line class="cls-1" x1="33.33" y1="2.98" x2="29.57" y2="9.5"/><line class="cls-1" x1="14.88" y1="34.94" x2="11.11" y2="41.47"/><line class="cls-1" x1="22.22" y1="7.53" x2="22.22"/><line class="cls-1" x1="22.22" y1="44.44" x2="22.22" y2="36.91"/><line class="cls-1" x1="14.88" y1="9.5" x2="11.11" y2="2.98"/><line class="cls-1" x1="33.33" y1="41.47" x2="29.57" y2="34.94"/><line class="cls-1" x1="9.5" y1="14.88" x2="2.98" y2="11.11"/><line class="cls-1" x1="22.22" y1="22.22" x2="22.22" y2="22.22"/><line class="cls-1" x1="41.47" y1="33.33" x2="34.94" y2="29.57"/><line class="cls-1" x1="7.53" y1="22.22" y2="22.22"/><line class="cls-1" x1="22.22" y1="22.22" x2="22.22" y2="22.22"/><line class="cls-1" x1="44.44" y1="22.22" x2="36.91" y2="22.22"/><line class="cls-1" x1="9.5" y1="29.57" x2="2.98" y2="33.33"/><line class="cls-1" x1="22.22" y1="22.22" x2="22.22" y2="22.22"/><line class="cls-1" x1="41.47" y1="11.11" x2="34.94" y2="14.88"/><line class="cls-1" x1="14.88" y1="34.94" x2="11.11" y2="41.47"/><line class="cls-1" x1="33.33" y1="2.98" x2="29.57" y2="9.5"/><line class="cls-1" x1="22.22" y1="44.44" x2="22.22" y2="36.91"/><line class="cls-1" x1="22.22" y1="7.53" x2="22.22"/></svg>