<?xml version="1.0" encoding="utf-8"?>
<!-- Generator: Adobe Illustrator 27.5.0, SVG Export Plug-In . SVG Version: 6.00 Build 0)  -->
<svg version="1.1" id="Layer_1" xmlns="http://www.w3.org/2000/svg" xmlns:xlink="http://www.w3.org/1999/xlink" x="0px" y="0px"
	 viewBox="0 0 36.6 36.6" style="enable-background:new 0 0 36.6 36.6;" xml:space="preserve">
<style type="text/css">
	.st0{fill:#FFFFFF;}
</style>
<g>
	<g>
		<path class="st0" d="M18.3,0C8.2,0,0,8.2,0,18.3s8.2,18.3,18.3,18.3c10.1,0,18.3-8.2,18.3-18.3S28.4,0,18.3,0z M35.1,18.3
			c0,9.2-7.5,16.8-16.8,16.8S1.5,27.5,1.5,18.3S9.1,1.5,18.3,1.5C27.6,1.5,35.1,9.1,35.1,18.3z"/>
	</g>
	<polygon class="st0" points="17.6,7.1 17.6,17.6 7.1,17.6 7.1,19.1 17.6,19 17.5,29.5 19,29.5 19,19 29.5,19 29.5,17.6 19,17.6 
		19,7.1 	"/>
</g>
</svg>
