<?xml version="1.0" encoding="UTF-8"?><svg id="Layer_1" xmlns="http://www.w3.org/2000/svg" viewBox="0 0 65.84 43.74"><defs><style>.cls-1{fill:none;stroke:#fff;stroke-miterlimit:10;stroke-width:1.5px;}</style></defs><path class="cls-1" d="m55.11,22.68c3.8,1.6,6.45,5.35,6.45,9.73,0,5.85-4.73,10.58-10.58,10.58H13.97c-7.29,0-13.22-5.92-13.22-13.22s5.93-13.23,13.22-13.23c.27,0,.54,0,.77.06,2.25-7.66,9.34-13.27,17.74-13.27,5.95,0,11.23,2.79,14.61,7.14"/><path class="cls-1" d="m50.36,17.07v-.02c-.03-.12-.06-.22-.09-.35"/><polygon class="cls-1" points="53.38 .82 64.56 2.61 56.39 14.75 63.16 16.75 44.07 30.81 50.51 16.74 43.43 16.07 53.38 .82"/></svg>