<?xml version="1.0" encoding="UTF-8"?><svg id="Layer_1" xmlns="http://www.w3.org/2000/svg" viewBox="0 0 55.96 38.06"><defs><style>.cls-1{fill:none;stroke:#fff;stroke-miterlimit:10;}</style></defs><path class="cls-1" d="m37.53,21.97c4.31,0,7.79,3.49,7.79,7.79s-3.49,7.79-7.79,7.79H10.24c-5.38,0-9.74-4.37-9.74-9.74s4.37-9.74,9.74-9.74c.19,0,.39,0,.57.04,1.66-5.65,6.88-9.78,13.08-9.78,7.54,0,13.64,6.1,13.64,13.64Z"/><path class="cls-1" d="m44.05,25.48c2.35-1.52,4.05-4.03,4.41-7.05.64-5.38-3.19-10.27-8.57-10.92-3.27-.39-6.36.87-8.42,3.12"/><line class="cls-1" x1="34.21" y1="6.73" x2="31.9" y2="1.33"/><line class="cls-1" x1="52.56" y1="27.65" x2="47.86" y2="24.13"/><line class="cls-1" x1="55.9" y1="19.33" x2="50.07" y2="18.63"/><line class="cls-1" x1="54.64" y1="10.46" x2="49.23" y2="12.76"/><line class="cls-1" x1="49.1" y1="3.4" x2="45.57" y2="8.1"/><line class="cls-1" x1="40.08" y1="5.89" x2="40.78" y2=".06"/><line class="cls-1" x1="34.21" y1="6.73" x2="31.9" y2="1.33"/><line class="cls-1" x1="52.56" y1="27.65" x2="47.86" y2="24.13"/><line class="cls-1" x1="55.9" y1="19.33" x2="50.07" y2="18.63"/><line class="cls-1" x1="54.64" y1="10.46" x2="49.23" y2="12.76"/><line class="cls-1" x1="49.1" y1="3.4" x2="45.57" y2="8.1"/><line class="cls-1" x1="40.08" y1="5.89" x2="40.78" y2=".06"/></svg>