<?xml version="1.0" encoding="UTF-8"?><svg id="Layer_1" xmlns="http://www.w3.org/2000/svg" viewBox="0 0 36.6 36.6"><defs><style>.cls-1{fill:#fff;}</style></defs><path class="cls-1" d="m31.24,5.36C24.1-1.79,12.51-1.79,5.36,5.36c-7.15,7.14-7.14,18.73,0,25.88,7.14,7.14,18.73,7.14,25.88,0,7.15-7.14,7.14-18.74,0-25.88Zm-1.08,24.8c-6.54,6.54-17.18,6.54-23.72,0C-.09,23.62-.09,12.98,6.44,6.44,12.98-.1,23.62-.1,30.16,6.44c6.55,6.54,6.55,17.18,0,23.72Z"/><polygon class="cls-1" points="25.71 9.85 18.28 17.26 10.89 9.89 9.86 10.93 17.25 18.3 9.86 25.67 10.89 26.71 18.28 19.34 25.71 26.74 26.75 25.71 19.32 18.3 26.75 10.89 25.71 9.85"/></svg>